{"title":"Habemus Papam *2011* [HDRip.XviD.JBG28-miguel] [ENG]","uid":6820708,"size":1313524251,"categoryP":"video","categoryS":"movies","magnet":"?xt=urn:btih:d3a034fd0ec00072d7405178763a7a45bf08a46a&amp;dn=Habemus+Papam+%2A2011%2A+%5BHDRip.XviD.JBG28-miguel%5D+%5BENG%5D&amp;tr=udp%3A%2F%2Ftracker.openbittorrent.com%3A80&amp;tr=udp%3A%2F%2Fopen.demonii.com%3A1337&amp;tr=udp%3A%2F%2Ftracker.coppersurfer.tk%3A6969&amp;tr=udp%3A%2F%2Fexodus.desync.com%3A6969","seeders":1,"leechers":0,"uploader":"miguel1983","files":-1,"time":1321376488,"description":" &lt;a href=&quot;http://i30.fastpic.ru/big/2011/1115/11/66b381cd468eba8f735128a63e1a7811.jpg&quot; rel=&quot;nofollow&quot; target=&quot;_NEW&quot;&gt;http://i30.fastpic.ru/big/2011/1115/11/66b381cd468eba8f735128a63e1a7811.jpg&lt;/a&gt;\n\nCountry.......: Italian, France\nGenre.........: Drama\nDate release..: 15.04.2011 [World]\nDirector......: Nanni Moretti\nWriters.......: Nanni Moretti, Francesco Piccolo\nDuration......: 105 min.\nMore..........: http://www.imdb.com/title/tt1456472\nTrailer.......: http://www.imdb.com/video/imdblink/vi908500249\nTrailer.......:\n\nPilot :\nA story centered on the relationship between the newly elected Pope and his therapist..\n\nCats :\nMichel Piccoli   \t ...  \tIl papa\nJerzy Stuhr \t... \tIl portavoce\nRenato Scarpa \t... \tCardinal Gregori\nFranco Graziosi \t... \tCardinal Bollati\nCamillo Milli \t... \tCardinal Pescardona\nRoberto Nobile \t... \tCardinal Cevasco\nUlrich von Dobschutz \t... \tCardinal Brummer\nGianluca Gobbi \t... \tGuardia svizzera\nNanni Moretti \t... \tLo psicoanalista\nMargherita Buy \t... \tLa psicoanalista\nCamilla Ridolfi \t... \tBambina\nLeonardo Della Bianca \t... \tBambino\nDario Cantarelli \t... \tAttore\nManuela Mandracchia \t... \tAttrice\nRossana Mortara \t... \tAttrice \n\nData Technical :\nAudio.....: English\nSubtitles.: English .srt, Russian .srt\nFormat : MPEG-4 Visual \nFormat profile : Advanced Simple@L5 \nFormat settings, Matrix : Default (MPEG) \nCodec ID : XVID \nBit rate : 1 470 Kbps \nResolution: 704 x 384 pixels\nDisplay aspect ratio : 16:9 \nFrame rate : 23.976 fps \nBit depth : 8 bits \nStream size : 1.08 GiB (88%) \nWriting library : XviD 1.2.1 (UTC 2008-12-04) \nFormat : AC-3 \nFormat/Info : Audio Coding 3 \nMode extension : CM (complete main) \nCodec ID : 2000 \nBit rate : 192 Kbps \nChannel(s) : 2 channels \nChannel positions : Front: L R \nSampling rate : 48.0 KHz \nBit depth : 16 bits \nStream size : 144 MiB (11%)\n\nScreen : &lt;a href=&quot;\nhttp://i28.fastpic.ru/big/2011/1115/54/21cd276248f12528779da11436326754.jpg&quot; rel=&quot;nofollow&quot; target=&quot;_NEW&quot;&gt;\nhttp://i28.fastpic.ru/big/2011/1115/54/21cd276248f12528779da11436326754.jpg&lt;/a&gt; &lt;a href=&quot;\nhttp://i29.fastpic.ru/big/2011/1115/2e/fa59ea6ee94a87ce23c88d86e8ac0f2e.jpg&quot; rel=&quot;nofollow&quot; target=&quot;_NEW&quot;&gt;\nhttp://i29.fastpic.ru/big/2011/1115/2e/fa59ea6ee94a87ce23c88d86e8ac0f2e.jpg&lt;/a&gt; &lt;a href=&quot;\nhttp://i27.fastpic.ru/big/2011/1115/08/9044613b42d5622d4d9d57ed054a5908.jpg&quot; rel=&quot;nofollow&quot; target=&quot;_NEW&quot;&gt;\nhttp://i27.fastpic.ru/big/2011/1115/08/9044613b42d5622d4d9d57ed054a5908.jpg&lt;/a&gt; &lt;a href=&quot;\nhttp://i30.fastpic.ru/big/2011/1115/91/524b0e566a65332a975fdf5956b46291.jpg&quot; rel=&quot;nofollow&quot; target=&quot;_NEW&quot;&gt;\nhttp://i30.fastpic.ru/big/2011/1115/91/524b0e566a65332a975fdf5956b46291.jpg&lt;/a&gt; &lt;a href=&quot;\nhttp://i32.fastpic.ru/big/2011/1115/bd/f7fcde1ba83198628a940b584bcb35bd.jpg&quot; rel=&quot;nofollow&quot; target=&quot;_NEW&quot;&gt;\nhttp://i32.fastpic.ru/big/2011/1115/bd/f7fcde1ba83198628a940b584bcb35bd.jpg&lt;/a&gt;","torrent":{"xt":"urn:btih:d3a034fd0ec00072d7405178763a7a45bf08a46a","amp;dn":"Habemus+Papam+%2A2011%2A+%5BHDRip.XviD.JBG28-miguel%5D+%5BENG%5D","amp;tr":["udp%3A%2F%2Ftracker.openbittorrent.com%3A80","udp%3A%2F%2Fopen.demonii.com%3A1337","udp%3A%2F%2Ftracker.coppersurfer.tk%3A6969","udp%3A%2F%2Fexodus.desync.com%3A6969"],"infoHash":"d3a034fd0ec00072d7405178763a7a45bf08a46a","infoHashBuffer":{"type":"Buffer","data":[211,160,52,253,14,192,0,114,215,64,81,120,118,58,122,69,191,8,164,106]},"announce":[],"urlList":[]}}